<svg xmlns="http://www.w3.org/2000/svg" version="1.1" xmlns:xlink="http://www.w3.org/1999/xlink" xmlns:svgjs="http://svgjs.dev/svgjs" width="2000" height="1500" viewBox="0 0 2000 1500"><rect width="2000" height="1500" fill="#ffffff"></rect><g transform="matrix(0.75,0,0,0.75,249.09154779283585,534.7573083705311)"><svg viewBox="0 0 396 114" data-background-color="#ffffff" preserveAspectRatio="xMidYMid meet" height="575" width="2000" xmlns="http://www.w3.org/2000/svg" xmlns:xlink="http://www.w3.org/1999/xlink"><g id="tight-bounds" transform="matrix(1,0,0,1,0.24008861730862918,-0.10098661972534728)"><svg viewBox="0 0 395.52 114.20200120516299" height="114.20200120516299" width="395.52"><g><svg viewBox="0 0 395.52 114.20200120516299" height="114.20200120516299" width="395.52"><g><svg viewBox="0 0 395.52 114.20200120516299" height="114.20200120516299" width="395.52"><g id="textblocktransform"><svg viewBox="0 0 395.52 114.20200120516299" height="114.20200120516299" width="395.52" id="textblock"><g><svg viewBox="0 0 395.52 114.20200120516299" height="114.20200120516299" width="395.52"><path d="M394.594 24.494C392.735 12.64 387.435 9.345 387.435 9.345 371.165-2.865 350.86-0.234 332.619 1.521 300.414 1.592 268.339 4.2 236.208 5.599 168.767 5.812 100.749 2.303 33.643 10.957 27.339 13.612-6.54 11.478 1.121 26.011 3.129 32.057 10.456 38.767 10.232 44.314 11.236 45.286 12.631 43.058 13.226 44.456 15.309 48.226 18.711 46.448 21.501 48.677 17.614 54.627 20.403 59.582 23.062 64.774 18.377 66.126 12.371 65.486 9.675 69.967 9.396 73.215 7.89 72.598 6.235 72.456 5.026 72.361 2.59 72.717 2.999 73.736 4.394 77.221-1.594 79.237 2.162 82.65-0.422 86.349 3.948 89.55 3.353 93.556 3.278 94.362 3.687 95.05 4.338 95.24 7.22 96.259 3.018 98.251 3.464 100.408 33.029 115.155 65.104 104.96 95.394 111.741 103.259 106.999 97.346 113.424 100.489 112.428 102.943 111.266 104.728 116.079 107.499 113.353 107.927 112.57 107.276 110.721 108.8 111.077 109.6 111.266 110.307 111.219 110.418 110.128 110.586 108.492 109.117 109.512 108.726 108.658 112.947 104.344 111.906 114.609 115.866 114.182 115.68 112.926 114.528 111.124 116.889 111.361 119.232 109.559 119.306 108.066 121.389 112.12 121.463 112.997 121.835 113.613 122.43 114.04 128.938 109.63 135.409 115.605 142.233 113.613 146.417 111.432 150.433 114.799 154.672 113.969 156.16 113.305 157.666 112.12 159.098 114.111 176.632 114.538 195.319 112.76 211.943 114.182 256.364 111.527 303.836 115.273 350.674 111.764 361.719 110.413 373.192 108.492 383.958 106.951 383.958 106.951 392.679 102.731 392.679 83.765S394.538 67.169 394.817 52.067C395.096 36.965 396.398 36.348 394.538 24.494Z" opacity="1" fill="#f9cc0b" data-fill-palette-color="tertiary"></path><g transform="matrix(1,0,0,1,55.76832,26.230666666666668)"><svg width="283.98335999999995" viewBox="4.79 -37.77 233.89000000000001 50.86" height="61.74066787182965" data-palette-color="#0c1d36"><path d="M4.79-35.77L10.84-35.77 10.84-13.38Q10.84-10.91 11.61-9.11 12.38-7.3 13.64-6.13 14.89-4.96 16.48-4.38 18.07-3.81 19.68-3.81L19.68-3.81Q21.34-3.81 22.81-4.39 24.29-4.98 25.39-6.13 26.49-7.28 27.14-9.01 27.78-10.74 27.78-13.06L27.78-13.06 27.78-35.77 33.01-35.77 33.01-13.4Q33.01-11.74 32.63-10.07 32.25-8.4 31.47-6.86 30.69-5.32 29.5-3.98 28.32-2.64 26.71-1.65 25.1-0.66 23.06-0.09 21.02 0.49 18.55 0.49L18.55 0.49Q15.48 0.49 12.94-0.43 10.4-1.34 8.58-3.13 6.76-4.91 5.77-7.51 4.79-10.11 4.79-13.48L4.79-13.48 4.79-35.77ZM41.84 0L41.84-25.88 47.78-25.88 47.78 0 41.84 0ZM44.8-30.98L44.8-30.98Q44.02-30.98 43.37-31.24 42.72-31.49 42.25-31.93 41.77-32.37 41.51-32.98 41.26-33.59 41.26-34.3L41.26-34.3Q41.26-35.03 41.54-35.66 41.82-36.28 42.32-36.76 42.82-37.23 43.49-37.5 44.16-37.77 44.94-37.77L44.94-37.77Q45.7-37.77 46.34-37.5 46.97-37.23 47.43-36.78 47.9-36.33 48.17-35.71 48.44-35.08 48.44-34.38L48.44-34.38Q48.44-33.64 48.15-33.02 47.87-32.4 47.37-31.95 46.87-31.49 46.21-31.24 45.55-30.98 44.8-30.98ZM78.22 0L56.93 0 56.93-35.77 78.68-35.77 77.88-31.47 62.98-31.47 62.98-20.68 76.17-20.68 75.39-16.5 62.98-16.5 62.98-4.3 79.02-4.3 78.22 0ZM88.88 0L83.22 0 92.86-13.26 83.93-25.88 90.81-25.88 94.35-20.24 96.26-16.46 96.72-16.46 98.72-20.24 102.48-25.88 108.15-25.88 99.02-13.7 108.88 0 102.02 0 97.75-6.52 95.72-10.35 95.26-10.35 93.23-6.59 88.88 0ZM119.91-18.46L119.91-4.76Q120.52-4.47 121.22-4.27 121.91-4.08 122.57-3.96 123.23-3.83 123.84-3.78 124.45-3.74 124.89-3.74L124.89-3.74Q126.77-3.74 128.29-4.48 129.8-5.22 130.87-6.51 131.95-7.79 132.52-9.5 133.1-11.21 133.1-13.16L133.1-13.16Q133.1-14.99 132.62-16.58 132.14-18.16 131.29-19.34 130.43-20.51 129.21-21.18 127.99-21.85 126.53-21.85L126.53-21.85Q124.77-21.85 123.07-20.91 121.38-19.97 119.91-18.46L119.91-18.46ZM118.74-25.88L119.62-21.53Q120.5-22.36 121.52-23.22 122.55-24.07 123.73-24.77 124.92-25.46 126.27-25.92 127.63-26.37 129.16-26.37L129.16-26.37Q131.53-26.37 133.4-25.33 135.27-24.29 136.56-22.57 137.86-20.85 138.55-18.62 139.25-16.38 139.25-14.01L139.25-14.01Q139.25-10.89 138.1-8.23 136.95-5.57 134.98-3.63 133-1.68 130.34-0.6 127.68 0.49 124.67 0.49L124.67 0.49Q124.09 0.49 123.44 0.45 122.79 0.42 122.17 0.34 121.55 0.27 120.96 0.16 120.38 0.05 119.91-0.1L119.91-0.1 119.91 13.09 114 13.09 114-25.88 118.74-25.88ZM145.84 0L145.84-25.88 150.62-25.88 151.45-18.16Q151.79-18.8 152.16-19.47 152.53-20.14 152.89-20.76 153.26-21.39 153.58-21.9 153.89-22.41 154.11-22.75L154.11-22.75Q154.63-23.51 155.27-24.18 155.92-24.85 156.68-25.33 157.43-25.81 158.31-26.09 159.19-26.37 160.22-26.37L160.22-26.37Q160.93-26.37 161.63-26.2 162.34-26.03 162.83-25.66L162.83-25.66 162.19-20.21Q161.76-20.34 161.17-20.37 160.58-20.41 160.12-20.41L160.12-20.41Q158.56-20.41 157.34-19.96 156.12-19.51 155.13-18.71 154.14-17.92 153.32-16.85 152.5-15.77 151.75-14.53L151.75-14.53 151.75 0 145.84 0ZM188.53-5.32L188.53-2.37Q187.46-1.61 186.22-1.07 184.97-0.54 183.65-0.18 182.33 0.17 181.03 0.33 179.72 0.49 178.55 0.49L178.55 0.49Q175.84 0.49 173.51-0.34 171.18-1.17 169.46-2.78 167.73-4.39 166.76-6.75 165.78-9.11 165.78-12.16L165.78-12.16Q165.78-15.41 166.88-18.04 167.98-20.68 169.82-22.52 171.66-24.37 174.09-25.37 176.52-26.37 179.16-26.37L179.16-26.37Q181.36-26.37 183.25-25.65 185.14-24.93 186.52-23.51 187.9-22.09 188.68-19.97 189.46-17.85 189.46-15.04L189.46-15.04Q189.46-14.36 189.4-13.59 189.34-12.82 189.19-12.08L189.19-12.08 171.91-12.08Q171.91-10.11 172.6-8.59 173.3-7.08 174.57-6.07 175.84-5.05 177.62-4.53 179.4-4 181.55-4L181.55-4Q182.16-4 182.98-4.05 183.8-4.1 184.73-4.25 185.65-4.39 186.63-4.65 187.61-4.91 188.53-5.32L188.53-5.32ZM171.91-14.97L183.97-14.97Q183.97-16.75 183.52-18.09 183.07-19.43 182.28-20.34 181.5-21.24 180.47-21.69 179.43-22.14 178.23-22.14L178.23-22.14Q176.89-22.14 175.74-21.61 174.59-21.07 173.74-20.1 172.89-19.14 172.4-17.82 171.91-16.5 171.91-14.97L171.91-14.97ZM194.59-1.22L195.64-5.66 196.08-5.93Q197.03-5.42 198.07-5 199.1-4.59 200.13-4.31 201.15-4.03 202.13-3.88 203.11-3.74 203.96-3.74L203.96-3.74Q206.18-3.74 207.44-4.66 208.7-5.59 208.7-7.03L208.7-7.03Q208.7-8.01 208.12-8.64 207.55-9.28 206.61-9.73 205.67-10.18 204.47-10.52 203.28-10.86 202.02-11.24 200.76-11.62 199.57-12.11 198.37-12.6 197.43-13.35 196.49-14.11 195.92-15.2 195.34-16.28 195.34-17.87L195.34-17.87Q195.34-19.65 196.11-21.22 196.88-22.78 198.31-23.91 199.74-25.05 201.78-25.71 203.82-26.37 206.35-26.37L206.35-26.37Q206.99-26.37 207.83-26.32 208.67-26.27 209.59-26.16 210.5-26.05 211.43-25.88 212.36-25.71 213.17-25.44L213.17-25.44 212.09-21.07 211.55-20.75Q210.82-21.12 209.98-21.39 209.14-21.66 208.3-21.81 207.45-21.97 206.66-22.06 205.87-22.14 205.26-22.14L205.26-22.14Q203.11-22.14 201.9-21.29 200.69-20.43 200.69-18.99L200.69-18.99Q200.69-17.99 201.28-17.35 201.86-16.7 202.8-16.25 203.74-15.8 204.96-15.47 206.18-15.14 207.44-14.76 208.7-14.38 209.92-13.89 211.14-13.4 212.08-12.65 213.02-11.89 213.61-10.79 214.19-9.69 214.19-8.08L214.19-8.08Q214.19-6.27 213.41-4.7 212.63-3.13 211.19-1.98 209.75-0.83 207.72-0.17 205.7 0.49 203.23 0.49L203.23 0.49Q201.2 0.49 198.93 0.05 196.66-0.39 194.59-1.22L194.59-1.22ZM219.07-1.22L220.12-5.66 220.56-5.93Q221.51-5.42 222.55-5 223.59-4.59 224.61-4.31 225.64-4.03 226.62-3.88 227.59-3.74 228.45-3.74L228.45-3.74Q230.67-3.74 231.93-4.66 233.18-5.59 233.18-7.03L233.18-7.03Q233.18-8.01 232.61-8.64 232.04-9.28 231.1-9.73 230.16-10.18 228.96-10.52 227.76-10.86 226.51-11.24 225.25-11.62 224.05-12.11 222.86-12.6 221.92-13.35 220.98-14.11 220.4-15.2 219.83-16.28 219.83-17.87L219.83-17.87Q219.83-19.65 220.6-21.22 221.37-22.78 222.79-23.91 224.22-25.05 226.26-25.71 228.3-26.37 230.84-26.37L230.84-26.37Q231.47-26.37 232.32-26.32 233.16-26.27 234.07-26.16 234.99-26.05 235.92-25.88 236.85-25.71 237.65-25.44L237.65-25.44 236.58-21.07 236.04-20.75Q235.31-21.12 234.46-21.39 233.62-21.66 232.78-21.81 231.94-21.97 231.14-22.06 230.35-22.14 229.74-22.14L229.74-22.14Q227.59-22.14 226.38-21.29 225.18-20.43 225.18-18.99L225.18-18.99Q225.18-17.99 225.76-17.35 226.35-16.7 227.29-16.25 228.23-15.8 229.45-15.47 230.67-15.14 231.93-14.76 233.18-14.38 234.4-13.89 235.62-13.4 236.56-12.65 237.5-11.89 238.09-10.79 238.68-9.69 238.68-8.08L238.68-8.08Q238.68-6.27 237.9-4.7 237.11-3.13 235.67-1.98 234.23-0.83 232.21-0.17 230.18 0.49 227.71 0.49L227.71 0.49Q225.69 0.49 223.42 0.05 221.15-0.39 219.07-1.22L219.07-1.22Z" opacity="1" transform="matrix(1,0,0,1,0,0)" fill="#0c1d36" class="wordmark-text-0" data-fill-palette-color="quaternary" id="text-0"></path></svg></g></svg></g></svg></g></svg></g><g></g></svg></g><defs></defs></svg><rect width="395.52" height="114.20200120516299" fill="none" stroke="none" visibility="hidden"></rect></g></svg></g></svg>